<?xml version="1.0" encoding="UTF-8" standalone="no"?>
<!-- Created with Inkscape (http://www.inkscape.org/) -->

<svg
   xmlns:dc="http://purl.org/dc/elements/1.1/"
   xmlns:cc="http://creativecommons.org/ns#"
   xmlns:rdf="http://www.w3.org/1999/02/22-rdf-syntax-ns#"
   xmlns:svg="http://www.w3.org/2000/svg"
   xmlns="http://www.w3.org/2000/svg"
   xmlns:xlink="http://www.w3.org/1999/xlink"
   xmlns:sodipodi="http://sodipodi.sourceforge.net/DTD/sodipodi-0.dtd"
   xmlns:inkscape="http://www.inkscape.org/namespaces/inkscape"
   width="600"
   height="400"
   viewBox="0 0 158.75 105.83333"
   version="1.1"
   id="svg8"
   inkscape:version="0.92.3pre0 (0ab9bec, 2018-03-03)"
   sodipodi:docname="nothing.svg"
   inkscape:export-filename="/home/slesage/dev/portfolios/themes/theme-hugo-redcartografica/static/images/nobody.png"
   inkscape:export-xdpi="96"
   inkscape:export-ydpi="96">
  <rect
     width="100%"
     height="100%"
     fill="white"
     id="rect2" />
  <defs
     id="defs2">
    <symbol
       viewBox="0 0 24 24"
       id="ic_person_pin_24px">
      <path
         style="stroke-width:0.26458332"
         inkscape:connector-curvature="0"
         d="M 5.0270833,0.52916667 H 1.3229167 A 0.52916667,0.52916667 0 0 0 0.79375,1.0583333 V 4.7625 A 0.52916667,0.52916667 0 0 0 1.3229167,5.2916667 H 2.38125 l 0.79375,0.79375 0.79375,-0.79375 H 5.0270833 C 5.318125,5.2916667 5.55625,5.0535417 5.55625,4.7625 V 1.0583333 c 0,-0.29104163 -0.238125,-0.52916663 -0.5291667,-0.52916663 z M 3.175,1.4022917 A 0.714375,0.714375 0 0 1 3.889375,2.1166667 0.714375,0.714375 0 0 1 3.175,2.8310417 0.714375,0.714375 0 0 1 2.460625,2.1166667 0.714375,0.714375 0 0 1 3.175,1.4022917 Z M 4.7625,4.2333333 H 1.5875 V 3.9952083 C 1.5875,3.4660417 2.6458333,3.175 3.175,3.175 c 0.5291667,0 1.5875,0.2910417 1.5875,0.8202083 z"
         id="path12852" />
    </symbol>
    <symbol
       viewBox="0 0 24 24"
       id="ic_photo_24px">
      <path
         style="stroke-width:0.26458332"
         inkscape:connector-curvature="0"
         d="M 5.55625,5.0270833 V 1.3229167 C 5.55625,1.031875 5.318125,0.79375 5.0270833,0.79375 H 1.3229167 C 1.031875,0.79375 0.79375,1.031875 0.79375,1.3229167 v 3.7041666 c 0,0.2910417 0.238125,0.5291667 0.5291667,0.5291667 H 5.0270833 C 5.318125,5.55625 5.55625,5.318125 5.55625,5.0270833 Z M 2.2489583,3.571875 2.9104167,4.3682708 3.8364583,3.175 5.0270833,4.7625 H 1.3229167 Z"
         id="path10025" />
    </symbol>
  </defs>
  <sodipodi:namedview
     id="base"
     pagecolor="#ffffff"
     bordercolor="#666666"
     borderopacity="1.0"
     inkscape:pageopacity="1"
     inkscape:pageshadow="2"
     inkscape:zoom="0.5"
     inkscape:cx="-4.0592653"
     inkscape:cy="288.14069"
     inkscape:document-units="mm"
     inkscape:current-layer="layer1"
     showgrid="false"
     units="px"
     inkscape:window-width="1920"
     inkscape:window-height="1016"
     inkscape:window-x="0"
     inkscape:window-y="27"
     inkscape:window-maximized="1"
     inkscape:pagecheckerboard="false" />
  <metadata
     id="metadata5">
    <rdf:RDF>
      <cc:Work
         rdf:about="">
        <dc:format>image/svg+xml</dc:format>
        <dc:type
           rdf:resource="http://purl.org/dc/dcmitype/StillImage" />
        <dc:title></dc:title>
      </cc:Work>
    </rdf:RDF>
  </metadata>
  <g
     inkscape:label="Capa 1"
     inkscape:groupmode="layer"
     id="layer1"
     transform="translate(0,-191.16667)">
    <use
       id="use83965"
       transform="matrix(2,0,0,2,-1.5434065,216.0816)"
       style="fill:#d80394;stroke:none;fill-opacity:1"
       xlink:href="#ic_photo_24px"
       x="0"
       y="0"
       width="100%"
       height="100%" />
  </g>
</svg>
